<svg width="65" height="59" viewBox="0 0 65 59" fill="none" xmlns="http://www.w3.org/2000/svg">
<path d="M48.9167 45.7083H48.9487M50.2 36.0833H52.125C55.1148 36.0833 56.6096 36.0833 57.789 36.5716C59.3611 37.2229 60.6104 38.4723 61.2617 40.0443C61.75 41.2237 61.75 42.7185 61.75 45.7083C61.75 48.6982 61.75 50.1929 61.2617 51.3723C60.6104 52.9444 59.3611 54.1937 57.789 54.845C56.6096 55.3333 55.1148 55.3333 52.125 55.3333H13.625C10.6352 55.3333 9.14033 55.3333 7.9611 54.845C6.38886 54.1937 5.1397 52.9444 4.48844 51.3723C4 50.1929 4 48.6982 4 45.7083C4 42.7185 4 41.2237 4.48844 40.0443C5.1397 38.4723 6.38886 37.2229 7.9611 36.5716C9.14033 36.0833 10.6352 36.0833 13.625 36.0833H15.55M32.875 39.2917V4M32.875 39.2917L23.25 29.6667M32.875 39.2917L42.5 29.6667" stroke="#50BD49" stroke-width="6.41667" stroke-linecap="round" stroke-linejoin="round"/>
</svg>
