<svg width="85" height="85" viewBox="0 0 85 85" fill="none" xmlns="http://www.w3.org/2000/svg">
<path d="M10 42.5V83C10 84.1046 10.8954 85 12 85H42.381H72.7619C73.8665 85 74.7619 84.1046 74.7619 83V52.8214V21.5725C74.7619 21.042 74.5512 20.5333 74.1761 20.1583L64.3393 10.3214L54.6036 0.585786C54.2286 0.210714 53.7199 0 53.1894 0H31.9583H12C10.8954 0 10 0.895431 10 2V42.5ZM62.6191 12.6488L68.8179 18.8477C70.0779 20.1076 69.1855 22.2619 67.4037 22.2619H62.3155H54.5C53.3954 22.2619 52.5 21.3665 52.5 20.2619V12.6488C52.5 7.38691 52.6012 3.03571 52.8036 3.03571C52.9048 3.03571 57.3571 7.38691 62.6191 12.6488ZM39.9524 42.6012L40.0381 42.7963C40.7229 44.3563 42.92 44.4004 43.6669 42.8692L43.7976 42.6012C45.6191 38.8571 46.125 38.4524 49.6667 38.4524C51.7917 38.4524 53.5119 38.6548 53.5119 38.8571C53.5119 39.0595 51.8929 42.0952 49.9702 45.5357L46.9976 50.8015C46.6456 51.4251 46.6538 52.1892 47.0192 52.8051L49.9702 57.7798C51.8929 61.119 53.5119 64.0536 53.5119 64.3571C53.5119 64.5595 51.7917 64.7619 49.6667 64.7619C46.0238 64.7619 45.6191 64.4583 43.7976 60.6131L43.7119 60.4179C43.0271 58.858 40.8301 58.8139 40.0831 60.3451L39.9524 60.6131C38.131 64.3571 37.625 64.7619 34.0833 64.7619C31.9583 64.7619 30.2381 64.5595 30.2381 64.3571C30.2381 64.0536 31.8571 61.119 33.7798 57.7798L36.7308 52.8051C37.0962 52.1892 37.1044 51.4251 36.7524 50.8015L33.7798 45.5357C31.8571 42.0952 30.2381 39.0595 30.2381 38.8571C30.2381 38.6548 31.9583 38.4524 34.0833 38.4524C37.7262 38.4524 38.131 38.756 39.9524 42.6012Z" fill="#388E3C"/>
</svg>
