<svg width="85" height="85" viewBox="0 0 85 85" fill="none" xmlns="http://www.w3.org/2000/svg">
<g clip-path="url(#clip0_37_1034)">
<path d="M46.2053 19.41C46.2053 19.8648 47.532 21.9306 48.2332 22.537C49.6735 23.7878 53.1416 25.4366 59.3388 27.7677C61.0823 28.431 62.8638 29.208 63.3186 29.5112C64.342 30.2314 65.536 31.5201 66.1614 32.6003C67.2416 34.4765 67.2416 34.5713 67.4311 46.8898C67.5259 53.1438 67.6206 61.0845 67.6206 64.5148C67.6396 70.7119 67.6396 70.7877 67.1658 72.2849C66.0477 75.791 63.2049 78.4631 59.4715 79.5244C58.3154 79.8466 57.0077 79.8656 36.161 79.8656C24.013 79.8656 13.7602 79.8087 13.3623 79.7329L12.6421 79.6002L13.078 80.2067C13.9497 81.4385 15.5796 82.822 17.0768 83.5611C17.8917 83.9781 18.7066 84.3192 18.8393 84.3192C18.9909 84.3192 19.1046 84.376 19.1046 84.4518C19.1046 84.7551 22.1368 84.793 42.7941 84.793C62.9206 84.793 66.4835 84.7551 66.4835 84.4897C66.4835 84.3571 67.9997 83.8454 68.3408 83.8833C68.4735 83.8833 68.5493 83.8454 68.4924 83.7885C68.4356 83.7317 68.8146 83.4474 69.3452 83.1442C70.7097 82.3672 72.3775 80.5857 73.1734 79.0506C74.5001 76.5301 74.4432 78.0273 74.4432 50.4717V25.6072L73.2682 25.3987C72.6049 25.285 67.0521 24.3753 60.8928 23.3898C48.8775 21.4189 48.4795 21.3241 46.9824 19.9786C46.5654 19.5806 46.2053 19.3342 46.2053 19.41Z" fill="#D40000"/>
<path d="M19.1475 0.288625C15.6309 1.23905 12.6655 3.97629 11.487 7.35982L11.0498 8.63339V42.5637V76.494L11.487 77.7676C12.0763 79.4784 13.1217 81.0371 14.5474 82.3107C15.7069 83.3751 17.5507 84.4396 18.6532 84.6677C18.9764 84.7247 18.7483 84.5727 18.14 84.3256C15.954 83.3941 14.2242 82.0635 13.0837 80.4478L12.6465 79.8395L13.3689 79.9726C13.768 80.0486 24.0517 80.1057 36.2362 80.1057C57.1456 80.1057 58.4572 80.0866 59.6167 79.7635C63.3614 78.699 66.2127 76.0188 67.3342 72.5022C67.8094 71.0005 67.8094 70.9245 67.7904 64.7087C67.7904 61.2682 67.6954 53.3036 67.6003 47.0307C67.4102 34.6751 67.4102 34.5801 66.3268 32.6983C65.6995 31.6148 64.5019 30.3222 63.4755 29.5999C63.0193 29.2957 61.2325 28.5164 59.4837 27.8511C53.2679 25.513 49.7893 23.8593 48.3446 22.6047C47.6033 21.9394 46.3107 19.9245 46.3107 19.3922C46.3107 19.2782 46.1016 18.86 45.8355 18.4608C45.1892 17.4724 44.733 15.5335 44.8851 14.45C44.9611 13.9748 45.7785 10.6103 46.7099 6.97965C47.6413 3.36802 48.4017 0.307634 48.4017 0.193582C48.4017 0.0415135 44.2958 -0.0155122 34.2973 0.00349635C22.55 0.00349635 20.0028 0.0605221 19.1475 0.288625ZM17.9689 7.13171C18.3301 7.58792 18.3681 7.89206 18.3681 10.4202C18.3491 13.3095 18.2921 13.5946 17.4747 14.0128C16.8094 14.374 16.2772 14.2789 15.6879 13.6897L15.1366 13.1384V10.3442C15.1366 7.64495 15.1557 7.5499 15.6119 7.11271C16.2772 6.4284 17.4367 6.44741 17.9689 7.13171ZM17.8929 15.6666C18.5772 16.3319 18.5772 17.8526 17.8929 18.5179C17.3416 19.0881 16.3152 19.1451 15.7259 18.6509C15.2697 18.2898 15.0226 17.1873 15.2127 16.4459C15.5168 15.2104 17.0185 14.7732 17.8929 15.6666ZM44.9041 34.257C46.938 35.3024 48.1926 38.0207 47.9455 40.7579C47.7744 42.6588 47.3752 44.0274 46.2157 46.7076L45.1702 49.0837L45.8735 50.2432C46.6339 51.4977 50.6637 57.7706 50.8918 58.0177C50.9488 58.1127 52.3364 58.0747 53.9332 57.9417C59.5977 57.5045 62.8672 58.5309 64.2168 61.1921C64.9391 62.5988 65.0532 63.7203 64.673 65.0699C63.8937 67.7691 60.8903 69.2898 57.8869 68.5294C55.739 67.9782 53.7811 66.4765 50.9488 63.207L49.8083 61.9144L42.1478 63.6822L34.4874 65.4691L33.2518 67.9021C31.0088 72.3121 28.8989 74.5932 26.6368 75.0684C24.0137 75.6196 21.5425 74.0609 21.0293 71.5138C20.4781 68.8906 22.0178 66.2484 24.9451 64.8037C25.7054 64.4426 27.5112 63.8723 29.3171 63.4161L32.4154 62.6558L34.1642 60.2607C36.3122 57.2954 39.1065 53.0755 40.361 50.9085L41.2925 49.2547L40.1329 46.9167C39.5056 45.6241 38.7833 43.9133 38.5172 43.134C37.966 41.4042 37.7949 38.9331 38.137 37.6975C38.5742 36.1388 39.9619 34.6561 41.5016 34.0859C42.3759 33.7627 44.1247 33.8578 44.9041 34.257Z" fill="#FF0000"/>
<path d="M42.1666 37.3555C40.7979 38.3059 40.855 40.5109 42.3376 43.7043L43.098 45.3201L43.7633 43.8374C44.9988 41.0241 45.0369 38.7811 43.8393 37.5836C43.231 36.9753 42.7938 36.9183 42.1666 37.3555Z" fill="#EC1515"/>
<path d="M43.1182 52.5051C43.0231 52.6382 42.5099 53.4175 41.9967 54.2539C41.4834 55.0903 40.2289 57.0292 39.2214 58.5689C38.214 60.1086 37.4916 61.3251 37.6247 61.2871C37.7577 61.2301 39.9818 60.6788 42.5859 60.0515C45.1901 59.4243 47.3571 58.873 47.3951 58.835C47.4331 58.816 46.5207 57.3143 45.3802 55.5275C43.8975 53.2084 43.2512 52.3341 43.1182 52.5051Z" fill="#EC1515"/>
<path d="M55.207 61.1542C54.5987 61.1732 54.1045 61.2683 54.1045 61.3443C54.1045 61.5344 57.3169 64.6708 57.9062 65.07C58.5525 65.4882 60.1302 65.4692 60.8715 65.013C62.1071 64.2716 61.784 62.4848 60.3013 61.7815C59.2748 61.2683 57.2409 61.0212 55.207 61.1542Z" fill="#EC1515"/>
<path d="M27.6454 67.579C25.2503 68.1493 24.2048 69.0617 24.2999 70.4683C24.3379 71.1336 24.4709 71.3998 24.8701 71.7039C25.8586 72.4452 26.6759 71.875 28.0826 69.4989C28.5198 68.7386 29.014 67.9402 29.1661 67.6931C29.4132 67.3129 29.4132 67.2749 29.09 67.2939C28.8809 67.2939 28.2346 67.427 27.6454 67.579Z" fill="#EC1515"/>
<path d="M74.6715 50.4523C74.6145 78.2618 74.6905 76.7601 73.3599 79.2883C72.1814 81.5313 70.2995 83.185 67.6383 84.3256C67.0301 84.5727 66.821 84.7247 67.1251 84.6677C68.2086 84.4396 70.1095 83.3371 71.307 82.2536C72.6946 80.9801 73.55 79.7255 74.2343 77.9577L74.7285 76.6841L74.7856 55.3945C74.8046 43.6852 74.8046 32.128 74.7856 29.7329C74.7476 27.3188 74.7095 36.6521 74.6715 50.4523Z" fill="#D40000"/>
<path d="M19.699 84.9528C20.1743 85.1049 21.9235 85.2 21.7714 85.0669C21.7334 85.0288 21.144 84.9528 20.4595 84.8958C19.718 84.8387 19.4138 84.8577 19.699 84.9528Z" fill="#EC1515"/>
<path d="M64.8447 84.9528L63.894 85.0859H64.7496C65.2249 85.1049 65.8143 85.0289 66.0805 84.9528C66.6699 84.7627 66.2326 84.7627 64.8447 84.9528Z" fill="#EC1515"/>
<path d="M47.3311 5.3457C47.3809 5.37891 48.1944 6.14258 49.1407 7.05566L50.8838 8.71582L49.2237 7.00586C48.3106 6.07617 47.4971 5.3125 47.4141 5.3125C47.3311 5.3125 47.2979 5.3291 47.3311 5.3457Z" fill="#EC4040"/>
<path d="M54.5359 12.2852C56.3621 14.1113 57.8894 15.6055 57.9392 15.6055C57.989 15.6055 56.5281 14.1113 54.7019 12.2852C52.8757 10.459 51.3484 8.96484 51.2986 8.96484C51.2488 8.96484 52.7097 10.459 54.5359 12.2852Z" fill="#EC4040"/>
<path d="M61.7576 19.3408C63.6335 21.2168 65.1941 22.7441 65.2439 22.7441C65.2937 22.7441 63.7995 21.2168 61.9236 19.3408C60.0476 17.4648 58.487 15.9375 58.4372 15.9375C58.3874 15.9375 59.8816 17.4648 61.7576 19.3408Z" fill="#EC4040"/>
<path d="M44.2104 18.5107C44.2104 18.8759 44.2436 19.0087 44.2768 18.7929C44.31 18.5937 44.31 18.2949 44.2768 18.1288C44.227 17.9794 44.1938 18.1454 44.2104 18.5107Z" fill="#EC4040"/>
<path d="M68.5312 25.915C69.3779 26.7783 70.0088 27.542 69.959 27.6084C69.8926 27.6748 69.9258 27.7246 70.0254 27.7246C70.4238 27.7246 70.1914 27.4424 68.6143 25.8984L66.9873 24.3213L68.5312 25.915Z" fill="#EC4040"/>
<path d="M51.216 62.4219C51.5646 62.7871 51.8966 63.0859 51.9464 63.0859C51.9963 63.0859 51.7306 62.7871 51.382 62.4219C51.0334 62.0566 50.7013 61.7578 50.6515 61.7578C50.6017 61.7578 50.8673 62.0566 51.216 62.4219Z" fill="#EC4040"/>
<path d="M30.9453 69.2617L30.4639 69.8096L31.0117 69.3281C31.5098 68.8633 31.626 68.7305 31.4932 68.7305C31.46 68.7305 31.2275 68.9795 30.9453 69.2617Z" fill="#EC4040"/>
<path d="M46.7298 7.16988C45.4182 12.3212 44.962 14.4502 44.981 15.2865C45 18.0048 47.015 20.628 49.6571 21.3693C50.7596 21.6924 74.2542 25.5132 74.3683 25.3991C74.4443 25.3231 48.8968 0.307786 48.6307 0.231752C48.5546 0.193735 47.6993 3.31114 46.7298 7.16988Z" fill="#FF8080"/>
<path d="M56.1581 57.9037C56.3863 57.9418 56.7285 57.9418 56.9186 57.9037C57.0897 57.8467 56.8996 57.8087 56.4813 57.8277C56.063 57.8277 55.9109 57.8657 56.1581 57.9037Z" fill="#EC6B6B"/>
<path d="M55.8155 63.3211C56.5951 64.1767 56.7662 64.3288 56.7662 64.1767C56.7662 64.1386 56.3669 63.7394 55.8726 63.2831L54.96 62.4275L55.8155 63.3211Z" fill="#EC6B6B"/>
<path d="M15.8019 7.11285C15.3457 7.55004 15.3267 7.64509 15.3267 10.4013C15.3267 13.1005 15.3457 13.2336 15.7639 13.6328C16.3151 14.165 17.2845 14.184 17.7788 13.6898C18.292 13.1766 18.406 12.3592 18.33 9.77405C18.273 7.60707 18.254 7.55004 17.7407 7.09384C17.0564 6.50457 16.3911 6.50457 15.8019 7.11285Z" fill="#ECECEC"/>
<path d="M16.1252 15.4758C15.4788 15.761 15.3267 16.0652 15.3267 17.187C15.3267 18.2898 15.821 18.8792 16.7336 18.8792C17.7603 18.8792 18.2546 18.3088 18.2546 17.111C18.2546 15.6279 17.3801 14.9625 16.1252 15.4758Z" fill="#ECECEC"/>
<path d="M40.9688 34.4852C40.4936 34.7323 39.7902 35.2836 39.4101 35.7018C38.3456 36.8993 38.0795 37.6597 38.0795 39.6176C38.0985 41.7275 38.6307 43.5333 40.2464 46.8978C40.8547 48.1714 41.368 49.2549 41.368 49.3119C41.368 49.502 38.5167 54.1591 37.3191 55.9649C36.6918 56.8964 35.3232 58.8352 34.2778 60.2799C32.586 62.6179 32.3389 62.8841 31.7116 62.9981C29.6016 63.3783 26.2751 64.3287 25.0776 64.899C22.3594 66.1725 20.8957 68.3585 21.0858 70.7916C21.2949 73.4908 22.8916 74.9545 25.5908 74.9735C26.8264 74.9735 27.1495 74.8975 28.0239 74.4033C29.7917 73.4338 31.3694 71.3809 33.3273 67.5602C33.8976 66.4006 34.4108 65.4502 34.4298 65.4122C34.4678 65.3742 37.9274 64.5378 42.1473 63.5494L49.8268 61.7625L50.8532 62.9411C54.1227 66.7238 56.4798 68.3585 58.9129 68.5486C62.9237 68.8718 65.6989 65.5453 64.4444 61.9146C63.7791 59.9567 61.7832 58.5691 59.0269 58.1319C57.6963 57.9228 53.9516 57.9988 51.8227 58.265L50.9483 58.379L48.8763 55.1856C47.7358 53.4178 46.3862 51.3078 45.892 50.4905L44.9796 49.0268L45.3788 48.2284C47.5077 44.0466 48.2871 40.3589 47.5457 37.8878C46.5953 34.6753 43.592 33.1166 40.9688 34.4852ZM44.1052 37.6217C45.0936 38.8192 45.0366 41.1763 43.9341 43.7424C43.5349 44.6738 43.1548 45.4152 43.0977 45.4152C42.8696 45.4152 41.387 41.8225 41.1589 40.701C40.9688 39.7886 40.9688 39.3895 41.1589 38.7622C41.6721 37.0514 43.1357 36.4811 44.1052 37.6217ZM45.4928 55.4517C46.6713 57.2955 47.5647 58.8732 47.4887 58.9303C47.2796 59.1204 37.5472 61.4394 37.4332 61.3254C37.3761 61.2683 38.4406 59.5195 39.7902 57.4476C41.1589 55.3757 42.4704 53.3227 42.7176 52.8855C42.9647 52.4293 43.2118 52.0682 43.2688 52.0872C43.3258 52.0872 44.3143 53.6079 45.4928 55.4517ZM59.9583 61.4584C62.0683 62.3518 62.3724 64.6519 60.4526 65.3742C58.9509 65.9444 57.7533 65.3742 55.3393 62.9221C54.0847 61.6485 53.8756 61.3444 54.1037 61.1733C54.5789 60.8501 59.0079 61.0782 59.9583 61.4584ZM29.3735 67.5031C28.7082 68.7957 27.2446 71.0768 26.8074 71.5139C25.7429 72.5784 24.0701 71.9131 24.0701 70.4305C24.0701 69.0618 25.2297 68.0734 27.5297 67.4651C29.4496 66.9709 29.6587 66.9709 29.3735 67.5031Z" fill="#ECECEC"/>
</g>
<defs>
<clipPath id="clip0_37_1034">
<rect width="85" height="85" fill="white"/>
</clipPath>
</defs>
</svg>
