<svg width="85" height="85" viewBox="0 0 85 85" fill="none" xmlns="http://www.w3.org/2000/svg">
<g clip-path="url(#clip0_37_1062)">
<path d="M42.5 17.5146V35.0293H50.3525C57.873 35.0293 58.2051 35.0459 58.7363 35.3613C60.3301 36.3408 60.3301 38.6982 58.7363 39.6777C58.2051 39.9932 57.873 40.0098 50.3525 40.0098H42.5V42.5V44.9902H50.3525C57.873 44.9902 58.2051 45.0068 58.7363 45.3223C60.3301 46.3018 60.3301 48.6592 58.7363 49.6387C58.2051 49.9541 57.873 49.9707 50.3525 49.9707H42.5V52.4609V54.9512H50.3525C57.873 54.9512 58.2051 54.9678 58.7363 55.2832C60.3301 56.2627 60.3301 58.6201 58.7363 59.5996C58.2051 59.915 57.873 59.9316 50.3525 59.9316H42.5V62.4219V64.9121H45.3721C47.9287 64.9121 48.2773 64.9453 48.7754 65.2441C50.3691 66.2236 50.3691 68.5811 48.7754 69.5605C48.2773 69.8594 47.9287 69.8926 45.3721 69.8926H42.5V77.4463V85L55.9971 84.9668L69.4775 84.917L70.6396 84.3525C72.1504 83.6055 73.4785 82.2773 74.2256 80.7666L74.79 79.6045L74.8398 51L74.873 22.4121H65.6924C55.0508 22.4121 55.4824 22.4619 53.9385 20.9346C52.4111 19.3906 52.4609 19.8223 52.4609 9.18066V0H47.4805H42.5V17.5146Z" fill="#4175DF"/>
<path d="M15.124 0.332016C13.165 1.04588 11.7041 2.35741 10.7578 4.29979L10.21 5.39549V42.5V79.6045L10.791 80.7666C11.4883 82.1445 12.8828 83.6054 14.0283 84.1533C15.8545 85.0166 15.4062 85 29.418 85H42.5V77.4463V69.8926H34.6641C27.127 69.8926 26.7949 69.876 26.2637 69.5605C24.6699 68.581 24.6699 66.2236 26.2637 65.2441C26.7949 64.9287 27.127 64.9121 34.6641 64.9121H42.5V62.4219V59.9316H34.6641C27.127 59.9316 26.7949 59.915 26.2637 59.5996C24.6699 58.6201 24.6699 56.2627 26.2637 55.2832C26.7949 54.9678 27.127 54.9512 34.6641 54.9512H42.5V52.4609V49.9707H34.6641C27.127 49.9707 26.7949 49.9541 26.2637 49.6387C24.6699 48.6592 24.6699 46.3017 26.2637 45.3222C26.7949 45.0068 27.127 44.9902 34.6641 44.9902H42.5V42.5V40.0097H34.6641C27.127 40.0097 26.7949 39.9931 26.2637 39.6777C24.6699 38.6982 24.6699 36.3408 26.2637 35.3613C26.7949 35.0459 27.127 35.0293 34.6641 35.0293H42.5V17.5146V-1.47819e-05H29.2686C16.6182 0.0165868 15.9873 0.0331883 15.124 0.332016Z" fill="#4096EC"/>
<path d="M52.494 9.24707C52.5438 18.3115 52.5438 18.5273 52.8925 19.2744C53.4071 20.3867 54.3368 21.333 55.4159 21.8643L56.3622 22.3291L65.6259 22.3789C75.869 22.4287 75.1386 22.5117 74.6405 21.3662C74.3749 20.752 54.2704 0.61426 53.5565 0.249026C53.2909 0.116213 52.9423 2.15594e-06 52.7596 2.15594e-06C52.4442 2.15594e-06 52.4442 0.18262 52.494 9.24707Z" fill="#80AEF8"/>
<path d="M26.8282 35.1954C26.1309 35.4112 25.417 36.1583 25.2178 36.8887C24.8526 38.2833 25.8155 39.711 27.2598 39.9268C27.6583 39.9766 34.7803 40.0098 43.1143 39.9766C58.1055 39.9268 58.2549 39.9268 58.7032 39.5782C59.8653 38.7149 60.1807 37.6358 59.6163 36.4571C59.334 35.9092 59.0684 35.627 58.5372 35.378C57.8399 35.0294 57.6573 35.0294 42.5665 35.046C34.1827 35.046 27.0938 35.129 26.8282 35.1954Z" fill="#ECECEC"/>
<path d="M26.8282 45.1563C26.1309 45.3721 25.417 46.1192 25.2178 46.8497C24.8526 48.2442 25.8155 49.6719 27.2598 49.8878C27.6583 49.9376 34.7803 49.9708 43.1143 49.9376C58.1055 49.8878 58.2549 49.8878 58.7032 49.5391C59.8653 48.6758 60.1807 47.5967 59.6163 46.418C59.334 45.8702 59.0684 45.588 58.5372 45.3389C57.8399 44.9903 57.6573 44.9903 42.5665 45.0069C34.1827 45.0069 27.0938 45.0899 26.8282 45.1563Z" fill="#ECECEC"/>
<path d="M26.8282 55.1173C26.1309 55.3331 25.417 56.0801 25.2178 56.8106C24.8526 58.2051 25.8155 59.6329 27.2598 59.8487C27.6583 59.8985 34.7803 59.9317 43.1143 59.8985C58.1055 59.8487 58.2549 59.8487 58.7032 59.5001C59.8653 58.6368 60.1807 57.5577 59.6163 56.379C59.334 55.8311 59.0684 55.5489 58.5372 55.2999C57.8399 54.9512 57.6573 54.9512 42.5665 54.9678C34.1827 54.9678 27.0938 55.0508 26.8282 55.1173Z" fill="#ECECEC"/>
<path d="M26.8282 65.0782C26.1309 65.294 25.417 66.0411 25.2178 66.7715C24.8526 68.1661 25.8155 69.5938 27.2598 69.8096C27.6583 69.8594 32.5391 69.8926 38.1338 69.8594C48.0948 69.8096 48.294 69.8096 48.7422 69.461C49.9044 68.5977 50.2198 67.5186 49.6553 66.3399C49.3731 65.7921 49.1075 65.5098 48.5762 65.2608C47.8956 64.9122 47.6465 64.9122 37.586 64.9288C31.9415 64.9288 27.0938 65.0118 26.8282 65.0782Z" fill="#ECECEC"/>
</g>
<defs>
<clipPath id="clip0_37_1062">
<rect width="85" height="85" fill="white"/>
</clipPath>
</defs>
</svg>
